<svg version="1.2" xmlns="http://www.w3.org/2000/svg" viewBox="0 0 590 590" width="32" height="32">
	<title>WhatsApp_ico-svg</title>
	<defs>
		<clipPath clipPathUnits="userSpaceOnUse" id="cp1">
			<path d="m588.98 438.95c0 3.2-0.1 10.13-0.29 15.49-0.47 13.11-1.51 30.02-3.08 37.73-2.37 11.58-5.93 22.51-10.58 31.61-5.5 10.76-12.51 20.4-20.85 28.72-8.32 8.31-17.95 15.29-28.7 20.77-9.14 4.66-20.14 8.23-31.79 10.58-7.63 1.54-24.42 2.56-37.44 3.02-5.36 0.19-12.3 0.29-15.49 0.29l-287.57-0.05c-3.2 0-10.13-0.09-15.49-0.28-13.11-0.48-30.02-1.51-37.73-3.09-11.58-2.36-22.51-5.92-31.61-10.57-10.76-5.5-20.4-12.52-28.72-20.85-8.31-8.32-15.3-17.95-20.77-28.7-4.66-9.14-8.23-20.14-10.58-31.79-1.54-7.63-2.56-24.42-3.02-37.44-0.2-5.36-0.29-12.3-0.29-15.49l0.04-287.57c0-3.2 0.1-10.13 0.29-15.49 0.47-13.11 1.51-30.02 3.08-37.73 2.37-11.58 5.93-22.51 10.58-31.61 5.5-10.76 12.51-20.4 20.85-28.73 8.32-8.3 17.95-15.29 28.7-20.76 9.14-4.67 20.14-8.23 31.79-10.58 7.63-1.54 24.42-2.56 37.44-3.03 5.36-0.19 12.3-0.28 15.48-0.28l287.58 0.04c3.2 0 10.13 0.1 15.49 0.29 13.11 0.47 30.02 1.51 37.73 3.08 11.58 2.36 22.51 5.93 31.61 10.58 10.76 5.5 20.4 12.51 28.72 20.85 8.31 8.32 15.3 17.95 20.77 28.69 4.66 9.15 8.23 20.15 10.58 31.8 1.54 7.63 2.56 24.41 3.03 37.44 0.19 5.36 0.28 12.3 0.28 15.48z"/>
		</clipPath>
		<linearGradient id="g1" x1="3" y1="587.2" x2="3" y2="3.1" gradientUnits="userSpaceOnUse">
			<stop offset="0" stop-color="#20b2aa"/>
			<stop offset="1" stop-color="#26c8bf"/>
		</linearGradient>
	</defs>
	<style>
		.s0 { fill: url(#g1) } 
		.s1 { fill: #ffffff } 
	</style>
	<g id="background">
	</g>
	<g id="WhatsApp Logo Icon">
		<g id="Clip-Path: Icon Shape" clip-path="url(#cp1)">
			<g id="Icon Shape">
				<path id="&lt;Path&gt;" class="s0" d="m589 438.9c0 3.2-0.1 10.2-0.3 15.5-0.5 13.1-1.5 30.1-3.1 37.8-2.4 11.5-5.9 22.5-10.6 31.6-5.5 10.7-12.5 20.4-20.8 28.7-8.3 8.3-18 15.3-28.7 20.8-9.2 4.6-20.2 8.2-31.8 10.6-7.6 1.5-24.4 2.5-37.5 3-5.3 0.2-12.2 0.3-15.4 0.3l-287.6-0.1c-3.2 0-10.1-0.1-15.5-0.3-13.1-0.4-30-1.5-37.7-3.1-11.6-2.3-22.5-5.9-31.6-10.5-10.8-5.5-20.4-12.5-28.8-20.9-8.3-8.3-15.3-17.9-20.7-28.7-4.7-9.1-8.3-20.1-10.6-31.8-1.6-7.6-2.6-24.4-3-37.4-0.2-5.4-0.3-12.3-0.3-15.5v-287.6c0-3.2 0.1-10.1 0.3-15.5 0.5-13.1 1.5-30 3.1-37.7 2.4-11.6 5.9-22.5 10.6-31.6 5.5-10.8 12.5-20.4 20.8-28.7 8.3-8.3 18-15.3 28.7-20.8 9.2-4.7 20.2-8.2 31.8-10.6 7.6-1.5 24.4-2.5 37.5-3 5.3-0.2 12.2-0.3 15.4-0.3l287.6 0.1c3.2 0 10.1 0.1 15.5 0.3 13.1 0.4 30 1.5 37.7 3 11.6 2.4 22.5 6 31.6 10.6 10.8 5.5 20.4 12.5 28.8 20.9 8.3 8.3 15.3 17.9 20.7 28.7 4.7 9.1 8.3 20.1 10.6 31.7 1.6 7.7 2.6 24.5 3 37.5 0.2 5.4 0.3 12.3 0.3 15.5z"/>
			</g>
		</g>
		<g id="WA Logo">
			<g id="&lt;Group&gt;">
				<path id="&lt;Compound Path&gt;" fill-rule="evenodd" class="s1" d="m511.5 290.2c0 114.7-93.4 208.1-208.2 208.1h-0.1c-34.8 0-69-8.8-99.4-25.3l-110.4 28.9 29.5-107.9c-18.2-31.5-27.8-67.3-27.8-104 0.1-114.8 93.5-208.1 208.2-208.1 55.7 0 108 21.7 147.3 61 39.3 39.4 60.9 91.7 60.9 147.3zm-35.1 0c0-46.3-18-89.7-50.7-122.4-32.6-32.7-76.1-50.7-122.3-50.8-95.4 0-173.1 77.6-173.1 173 0 32.7 9.1 64.5 26.4 92.1l4.2 6.5-17.5 63.8 65.5-17.1 6.3 3.7c26.6 15.8 57 24.1 88.1 24.1 95.4 0 173-77.6 173.1-172.9zm-68.2 49.5c1.3 2.1 1.3 12.5-3 24.7-4.4 12.1-25.1 23.2-35.1 24.7-9 1.3-20.3 1.9-32.8-2.1-7.6-2.3-17.2-5.5-29.7-10.9-52.1-22.5-86.2-75.1-88.8-78.5-2.6-3.5-21.3-28.2-21.3-53.8 0-25.6 13.5-38.2 18.2-43.4 4.8-5.2 10.5-6.5 13.9-6.5 3.5 0 7 0 10 0.2 3.2 0.1 7.5-1.2 11.7 8.9 4.3 10.4 14.7 36 16 38.6 1.3 2.6 2.2 5.6 0.5 9.1-1.8 3.5-2.6 5.7-5.2 8.7-2.6 3-5.5 6.8-7.8 9.1-2.6 2.6-5.4 5.4-2.3 10.6 3 5.2 13.5 22.3 28.9 36 19.9 17.8 36.7 23.3 41.9 25.9 5.2 2.6 8.2 2.1 11.2-1.3 3.1-3.5 13-15.2 16.5-20.4 3.5-5.2 6.9-4.4 11.7-2.6 4.8 1.7 30.3 14.3 35.5 16.9 5.2 2.6 8.7 3.9 10 6.1z"/>
			</g>
		</g>
	</g>
</svg>